<?xml version="1.0" encoding="utf-8"?>
<!-- Generator: Adobe Illustrator 17.0.0, SVG Export Plug-In . SVG Version: 6.00 Build 0)  -->
<!DOCTYPE svg PUBLIC "-//W3C//DTD SVG 1.1//EN" "http://www.w3.org/Graphics/SVG/1.1/DTD/svg11.dtd">
<svg version="1.1"
	 id="svg2985" xmlns:dc="http://purl.org/dc/elements/1.1/" xmlns:cc="http://creativecommons.org/ns#" xmlns:rdf="http://www.w3.org/1999/02/22-rdf-syntax-ns#" xmlns:svg="http://www.w3.org/2000/svg" xmlns:sodipodi="http://sodipodi.sourceforge.net/DTD/sodipodi-0.dtd" xmlns:inkscape="http://www.inkscape.org/namespaces/inkscape" inkscape:version="0.48.2 r9819" sodipodi:docname="icons.svg"
	 xmlns="http://www.w3.org/2000/svg" xmlns:xlink="http://www.w3.org/1999/xlink" x="0px" y="0px" width="320px" height="96px"
	 viewBox="0 0 320 96" enable-background="new 0 0 320 96" xml:space="preserve">
<sodipodi:namedview  id="base" pagecolor="#ffffff" bordercolor="#666666" borderopacity="1.0" inkscape:zoom="7.9180415" inkscape:cx="156.30797" inkscape:cy="30.928131" showgrid="true" inkscape:pageshadow="2" inkscape:window-height="1036" inkscape:pageopacity="0.0" inkscape:current-layer="layer1" inkscape:window-x="4" inkscape:grid-bbox="true" inkscape:window-y="22" inkscape:window-maximized="1" inkscape:document-units="px" inkscape:window-width="1916">
	<inkscape:grid  type="xygrid" empspacing="4" visible="true" enabled="true" id="grid2993" snapvisiblegridlinesonly="true">
		</inkscape:grid>
	
		<inkscape:grid  type="xygrid" spacingx="32px" spacingy="32px" empcolor="#000000" empopacity="0.6" empspacing="1" visible="true" enabled="true" id="grid3805" snapvisiblegridlinesonly="true">
		</inkscape:grid>
</sodipodi:namedview>
<g id="layer1" transform="translate(0,64)" inkscape:groupmode="layer" inkscape:label="Layer 1">
	<path id="path2995" inkscape:connector-curvature="0" sodipodi:nodetypes="ccccc" fill="#29BF04" d="M10-41v-14h2v14H10z"/>
	<path id="path3765" inkscape:connector-curvature="0" sodipodi:nodetypes="czcczcc" fill="#29BF04" d="M12-54c0,0,3-1,5,1s5,1,5,1
		v8c0,0-3,1-5-1s-5-1-5-1V-54z"/>
	<path id="path3807" inkscape:connector-curvature="0" sodipodi:nodetypes="ccccc" d="M42-55h4v14h-4V-55z"/>
	<path id="path3817" inkscape:connector-curvature="0" sodipodi:nodetypes="ccccc" d="M49-55h4v14h-4V-55z"/>
	<path id="path3821" inkscape:connector-curvature="0" sodipodi:nodetypes="ccccccccc" fill="#9F1212" d="M109-41h6l4-4v-6l-4-4h-6l-4,4v6L109-41z"
		/>
	<path id="path3823" inkscape:connector-curvature="0" sodipodi:nodetypes="cccc" d="M74-55l12,7l-12,7V-55z"/>
	<path id="path3910" inkscape:connector-curvature="0" d="M169-55h7v2h-5v10h10v-5h2v7h-14V-55z"/>
	<path id="path3912" inkscape:connector-curvature="0" sodipodi:nodetypes="ccccccccc" d="M175-48.5l4.5-4.5l-2-2h5.5v5.5l-2-2
		l-4.5,4.5H175V-48.5z"/>
	<path id="path3936" fill="#0f75bc" inkscape:connector-curvature="0" sodipodi:nodetypes="ccccccccc" d="M151-55v5.5l-2-2l-2.5,2.5l-0.656-0.656
		L145-50.5l2.5-2.5l-2-2H151z"/>
	<path id="path3938" fill="#0f75bc" inkscape:connector-curvature="0" sodipodi:nodetypes="cccccccc" d="M137-55h5.5l-2,2l2.5,2.5l-1.5,1.5
		l-2.5-2.5l-2,2V-55z"/>
	<path id="path3940" fill="#0f75bc" inkscape:connector-curvature="0" sodipodi:nodetypes="cccccccc" d="M137-41v-5.5l2,2l2.5-2.5l1.5,1.5l-2.5,2.5
		l2,2H137z"/>
	<path id="path4108" fill="#0f75bc" inkscape:connector-curvature="0" sodipodi:nodetypes="ccccccccc" d="M151-41h-5.5l2-2l-2.5-2.5l0.656-0.656
		L146.5-47l2.5,2.5l2-2V-41z"/>
	<path id="path2995-7" inkscape:connector-curvature="0" sodipodi:nodetypes="ccccc" fill="#29BF04" d="M10-9v-14h2v14H10z"/>
	<path id="path3765-8" inkscape:connector-curvature="0" sodipodi:nodetypes="czcczcc" fill="#29BF04" d="M12-22c0,0,3-1,5,1
		s5,1,5,1v8c0,0-3,1-5-1s-5-1-5-1V-22z"/>
	<path id="path3807-1" inkscape:connector-curvature="0" sodipodi:nodetypes="ccccc" d="M42-23h4v14h-4V-23z"/>
	<path id="path3817-3" inkscape:connector-curvature="0" sodipodi:nodetypes="ccccc" d="M49-23h4v14h-4V-23z"/>
	<path id="path3821-4" inkscape:connector-curvature="0" sodipodi:nodetypes="ccccccccc" fill="#9F1212" d="M109-9h6l4-4v-6l-4-4h-6
		l-4,4v6L109-9z"/>
	<path id="path3823-2" inkscape:connector-curvature="0" sodipodi:nodetypes="cccc" d="M74-23l12,7L74-9V-23z"/>
	<path id="path3936-2" fill="#0f75bc" inkscape:connector-curvature="0" sodipodi:nodetypes="ccccccccc" d="M145-17v-5.5l2,2
		l2.5-2.5l0.656,0.656L151-21.5l-2.5,2.5l2,2H145z"/>
	<path id="path3938-7" fill="#0f75bc" inkscape:connector-curvature="0" sodipodi:nodetypes="cccccccc" d="M143-17h-5.5l2-2
		l-2.5-2.5l1.5-1.5l2.5,2.5l2-2V-17z"/>
	<path id="path3940-7" fill="#0f75bc" inkscape:connector-curvature="0" sodipodi:nodetypes="cccccccc" d="M143-15v5.5l-2-2L138.5-9
		l-1.5-1.5l2.5-2.5l-2-2H143z"/>
	<path id="path4011" fill="#0f75bc" inkscape:connector-curvature="0" sodipodi:nodetypes="ccccccccc" d="M145-15h5.5l-2,2l2.5,2.5
		l-0.656,0.656L149.5-9l-2.5-2.5l-2,2V-15z"/>
	<path id="path2987" sodipodi:type="arc" sodipodi:cx="10" sodipodi:cy="10" sodipodi:rx="10" sodipodi:ry="10" fill="#2EAEDF" d="
		M186-16c0,5.523-4.477,10-10,10s-10-4.477-10-10s4.477-10,10-10S186-21.523,186-16z"/>
	<path id="path3757" inkscape:connector-curvature="0" sodipodi:nodetypes="ccccccc" fill="#FFFFFF" d="M170-14.5l4,4l7-7v-4l-7,7
		l-2-2L170-14.5z"/>
	<path id="path3857" inkscape:connector-curvature="0" sodipodi:nodetypes="czzccccc" fill="#A0A0A0" d="M204-60
		c0,0-5.056,12.797-6.249,15.623s0.189,3.61,2.772,2.589C203.105-42.809,239-57,239-57v-3l-38,15l6-15H204z"/>
	<path id="path3865" inkscape:connector-curvature="0" sodipodi:nodetypes="cccc" fill="#FFFFFF" d="M201-45l6-15h32L201-45z"/>
	<path id="path3857-3" inkscape:connector-curvature="0" sodipodi:nodetypes="czzccccc" fill="#A0A0A0" d="M231-28
		c0,0,5.056,12.797,6.249,15.623s-0.189,3.61-2.772,2.589C231.895-10.809,196-25,196-25v-3l38,15l-6-15H231z"/>
	<path id="path3865-8" inkscape:connector-curvature="0" sodipodi:nodetypes="cccc" fill="#FFFFFF" d="M234-13l-6-15h-32L234-13z"/>
	
		<path id="path3975" sodipodi:type="arc" sodipodi:cx="267" sodipodi:cy="17.5" sodipodi:rx="4" sodipodi:ry="2.5" fill="#FFFFFF" stroke="#A0A0A0" stroke-width="1.1951" d="
		M268.417-42.416c0,1.105-1.567,2-3.5,2s-3.5-0.895-3.5-2s1.567-2,3.5-2C266.849-44.417,268.417-43.521,268.417-42.416z"/>
	
		<path id="path3975-6" sodipodi:type="arc" sodipodi:cx="267" sodipodi:cy="17.5" sodipodi:rx="4" sodipodi:ry="2.5" fill="#FFFFFF" stroke="#A0A0A0" stroke-width="1.4609" d="
		M275.889-46.45c0,1.144-1.867,2.071-4.171,2.071s-4.171-0.927-4.171-2.071s1.867-2.071,4.171-2.071
		C274.021-48.521,275.889-47.594,275.889-46.45z"/>
	
		<path id="path3975-6-6" sodipodi:type="arc" sodipodi:cx="267" sodipodi:cy="17.5" sodipodi:rx="4" sodipodi:ry="2.5" fill="#FFFFFF" stroke="#A0A0A0" stroke-width="1.4" d="
		M283-53c0,1.709-2.462,3.095-5.5,3.095S272-51.291,272-53s2.462-3.095,5.5-3.095S283-54.709,283-53z"/>
	
		<path id="path3975-1" sodipodi:type="arc" sodipodi:cx="267" sodipodi:cy="17.5" sodipodi:rx="4" sodipodi:ry="2.5" fill="#FFFFFF" stroke="#A0A0A0" stroke-width="1.1951" d="
		M295.583-10.416c0,1.105,1.567,2,3.5,2s3.5-0.895,3.5-2s-1.567-2-3.5-2C297.151-12.416,295.583-11.521,295.583-10.416z"/>
	
		<path id="path3975-6-3" sodipodi:type="arc" sodipodi:cx="267" sodipodi:cy="17.5" sodipodi:rx="4" sodipodi:ry="2.5" fill="#FFFFFF" stroke="#A0A0A0" stroke-width="1.4609" d="
		M288.111-14.45c0,1.144,1.867,2.071,4.171,2.071s4.171-0.927,4.171-2.071s-1.867-2.071-4.171-2.071
		C289.979-16.521,288.111-15.593,288.111-14.45z"/>
	
		<path id="path3975-6-6-4" sodipodi:type="arc" sodipodi:cx="267" sodipodi:cy="17.5" sodipodi:rx="4" sodipodi:ry="2.5" fill="#FFFFFF" stroke="#A0A0A0" stroke-width="1.4" d="
		M281-21c0,1.709,2.462,3.095,5.5,3.095S292-19.29,292-21c0-1.709-2.462-3.095-5.5-3.095S281-22.709,281-21z"/>
	<path id="path3045" inkscape:connector-curvature="0" sodipodi:nodetypes="ccccccccc" fill="#FFFFFF" d="M151,9v5.5l-2-2l-2.5,2.5
		l-0.656-0.656L145,13.5l2.5-2.5l-2-2H151z"/>
	<path id="path3047" inkscape:connector-curvature="0" sodipodi:nodetypes="cccccccc" fill="#FFFFFF" d="M137,9h5.5l-2,2l2.5,2.5
		l-1.5,1.5l-2.5-2.5l-2,2V9z"/>
	<path id="path3049" inkscape:connector-curvature="0" sodipodi:nodetypes="cccccccc" fill="#FFFFFF" d="M137,23v-5.5l2,2l2.5-2.5
		l1.5,1.5l-2.5,2.5l2,2H137z"/>
	<path id="path3051" inkscape:connector-curvature="0" sodipodi:nodetypes="ccccccccc" fill="#FFFFFF" d="M151,23h-5.5l2-2l-2.5-2.5
		l0.656-0.656L146.5,17l2.5,2.5l2-2V23z"/>
</g>
</svg>
